<svg width="96" height="96" viewBox="0 0 96 96" fill="none" xmlns="http://www.w3.org/2000/svg">
<path d="M48 93.9999C40.8205 93.9999 33.8023 91.871 27.8328 87.8823C21.8633 83.8936 17.2106 78.2243 14.4631 71.5913C11.7157 64.9584 10.9968 57.6596 12.3975 50.6181C13.7981 43.5766 17.2553 37.1086 22.332 32.0319C27.4086 26.9553 33.8767 23.4981 40.9182 22.0974C47.9597 20.6968 55.2584 21.4156 61.8914 24.1631C68.5243 26.9106 74.1936 31.5632 78.1823 37.5327C82.171 43.5022 84.3 50.5205 84.3 57.6999C84.2894 67.324 80.4615 76.5509 73.6562 83.3562C66.851 90.1615 57.6241 93.9893 48 93.9999ZM48 23.4099C41.2156 23.4099 34.5837 25.4218 28.9429 29.1912C23.302 32.9606 18.9057 38.3181 16.3099 44.5862C13.7142 50.8543 13.0355 57.7514 14.3598 64.4052C15.684 71.059 18.9518 77.1707 23.7497 81.9672C28.5477 86.7638 34.6603 90.0297 41.3145 91.3521C47.9687 92.6744 54.8656 91.9937 61.1329 89.3961C67.4003 86.7985 72.7565 82.4006 76.5242 76.7587C80.292 71.1168 82.302 64.4842 82.3 57.6999C82.2894 48.6072 78.6719 39.89 72.2414 33.4614C65.8109 27.0328 57.0927 23.4179 48 23.4099Z" fill="black"/>
<path d="M48.0001 90.1101C41.59 90.1101 35.3239 88.2092 29.9941 84.648C24.6643 81.0867 20.5102 76.025 18.0572 70.1028C15.6041 64.1807 14.9623 57.6641 16.2129 51.3772C17.4634 45.0903 20.5502 39.3153 25.0828 34.7827C29.6154 30.2501 35.3903 27.1633 41.6772 25.9128C47.9642 24.6623 54.4807 25.3041 60.4029 27.7571C66.325 30.2102 71.3868 34.3642 74.948 39.694C78.5093 45.0238 80.4101 51.29 80.4101 57.7001C80.3995 66.2925 76.9815 74.5299 70.9057 80.6057C64.83 86.6815 56.5925 90.0995 48.0001 90.1101ZM48.0001 27.3001C41.9851 27.3001 36.1053 29.0838 31.1042 32.4258C26.1031 35.7677 22.2053 40.5177 19.904 46.075C17.6026 51.6322 17.001 57.7472 18.1752 63.6464C19.3493 69.5457 22.2466 74.9642 26.5005 79.2167C30.7544 83.4692 36.1739 86.3647 42.0735 87.5369C47.9732 88.7092 54.0879 88.1056 59.6444 85.8024C65.201 83.4992 69.9497 79.5999 73.29 74.5977C76.6302 69.5955 78.4121 63.715 78.4101 57.7001C78.3995 49.639 75.1919 41.9113 69.4909 36.2122C63.7899 30.5131 56.0612 27.308 48.0001 27.3001Z" fill="black"/>
<path d="M48 31.3301C47.7348 31.3301 47.4804 31.2247 47.2929 31.0372C47.1054 30.8496 47 30.5953 47 30.3301V26.3301C47 26.0649 47.1054 25.8105 47.2929 25.623C47.4804 25.4354 47.7348 25.3301 48 25.3301C48.2652 25.3301 48.5196 25.4354 48.7071 25.623C48.8946 25.8105 49 26.0649 49 26.3301V30.3301C49 30.5953 48.8946 30.8496 48.7071 31.0372C48.5196 31.2247 48.2652 31.3301 48 31.3301Z" fill="black"/>
<path d="M20.6201 58.7002H16.6201C16.3549 58.7002 16.1005 58.5948 15.913 58.4073C15.7255 58.2198 15.6201 57.9654 15.6201 57.7002C15.6201 57.435 15.7255 57.1806 15.913 56.9931C16.1005 56.8056 16.3549 56.7002 16.6201 56.7002H20.6201C20.8853 56.7002 21.1397 56.8056 21.3272 56.9931C21.5148 57.1806 21.6201 57.435 21.6201 57.7002C21.6201 57.9654 21.5148 58.2198 21.3272 58.4073C21.1397 58.5948 20.8853 58.7002 20.6201 58.7002Z" fill="black"/>
<path d="M48 90.1099C47.7348 90.1099 47.4804 90.0045 47.2929 89.817C47.1054 89.6294 47 89.3751 47 89.1099V85.1099C47 84.8446 47.1054 84.5903 47.2929 84.4028C47.4804 84.2152 47.7348 84.1099 48 84.1099C48.2652 84.1099 48.5196 84.2152 48.7071 84.4028C48.8946 84.5903 49 84.8446 49 85.1099V89.1099C49 89.3751 48.8946 89.6294 48.7071 89.817C48.5196 90.0045 48.2652 90.1099 48 90.1099Z" fill="black"/>
<path d="M79.4099 58.7002H75.4099C75.1447 58.7002 74.8903 58.5948 74.7028 58.4073C74.5153 58.2198 74.4099 57.9654 74.4099 57.7002C74.4099 57.435 74.5153 57.1806 74.7028 56.9931C74.8903 56.8056 75.1447 56.7002 75.4099 56.7002H79.4099C79.6751 56.7002 79.9295 56.8056 80.117 56.9931C80.3045 57.1806 80.4099 57.435 80.4099 57.7002C80.4099 57.9654 80.3045 58.2198 80.117 58.4073C79.9295 58.5948 79.6751 58.7002 79.4099 58.7002Z" fill="black"/>
<path d="M66.5999 77.3101C66.4284 77.3075 66.2602 77.2628 66.1099 77.1801L47.9999 66.7801L29.8899 77.1801C29.6999 77.2883 29.4797 77.3312 29.2629 77.3023C29.0462 77.2734 28.8449 77.1743 28.6899 77.0201C28.5334 76.8644 28.4328 76.6612 28.4039 76.4424C28.375 76.2235 28.4193 76.0012 28.5299 75.8101L38.9199 57.7001L28.5299 39.6001C28.4193 39.4091 28.375 39.1868 28.4039 38.9679C28.4328 38.749 28.5334 38.5458 28.6899 38.3901C28.8449 38.2359 29.0462 38.1368 29.2629 38.1079C29.4797 38.079 29.6999 38.1219 29.8899 38.2301L47.9999 48.6301L66.1099 38.2301C66.3008 38.1215 66.5222 38.0788 66.7399 38.1086C66.9575 38.1383 67.1593 38.2389 67.314 38.3948C67.4688 38.5507 67.5679 38.7532 67.5961 38.9711C67.6242 39.1889 67.5799 39.41 67.4699 39.6001L57.0799 57.7001L67.4699 75.8101C67.5578 75.9624 67.6041 76.1352 67.6039 76.3111C67.6037 76.487 67.5572 76.6597 67.4689 76.8118C67.3807 76.964 67.2539 77.0902 67.1013 77.1776C66.9487 77.2651 66.7758 77.3108 66.5999 77.3101ZM47.9999 64.6301C48.1751 64.6289 48.3475 64.6737 48.4999 64.7601L63.8999 73.6001L55.0599 58.2001C54.9721 58.0481 54.9259 57.8757 54.9259 57.7001C54.9259 57.5246 54.9721 57.3521 55.0599 57.2001L63.8999 41.8001L48.4999 50.6501C48.3479 50.7379 48.1754 50.7841 47.9999 50.7841C47.8244 50.7841 47.6519 50.7379 47.4999 50.6501L32.0999 41.8001L40.9399 57.2101C41.0277 57.3621 41.0739 57.5346 41.0739 57.7101C41.0739 57.8857 41.0277 58.0581 40.9399 58.2101L32.0999 73.6001L47.4999 64.7601C47.6523 64.6737 47.8247 64.6289 47.9999 64.6301Z" fill="black"/>
<path d="M50.5001 49.3399C50.2743 49.3476 50.0526 49.2787 49.871 49.1443C49.6894 49.01 49.5587 48.8181 49.5001 48.5999L48.0001 42.9299L46.4601 48.5999C46.392 48.8556 46.2254 49.0738 45.9967 49.2069C45.7681 49.34 45.496 49.377 45.2401 49.3099C45.1124 49.2763 44.9926 49.2177 44.8877 49.1375C44.7828 49.0573 44.6948 48.9572 44.6288 48.8428C44.5628 48.7285 44.5201 48.6022 44.5031 48.4712C44.4862 48.3403 44.4954 48.2073 44.5301 48.0799L47.0001 38.8399C47.0543 38.6237 47.1792 38.4318 47.3549 38.2946C47.5306 38.1575 47.7472 38.083 47.9701 38.083C48.193 38.083 48.4095 38.1575 48.5853 38.2946C48.761 38.4318 48.8859 38.6237 48.9401 38.8399L51.4401 48.0799C51.4748 48.2073 51.484 48.3403 51.467 48.4712C51.4501 48.6022 51.4074 48.7285 51.3414 48.8428C51.2753 48.9572 51.1873 49.0573 51.0824 49.1375C50.9775 49.2177 50.8578 49.2763 50.7301 49.3099C50.6547 49.3281 50.5776 49.3381 50.5001 49.3399Z" fill="black"/>
<path d="M38.6401 61.2002C38.5537 61.21 38.4665 61.21 38.3801 61.2002L29.1301 58.7002C28.9182 58.6426 28.7312 58.5169 28.5979 58.3425C28.4646 58.1681 28.3923 57.9547 28.3923 57.7352C28.3923 57.5157 28.4646 57.3022 28.5979 57.1278C28.7312 56.9534 28.9182 56.8278 29.1301 56.7702L38.3801 54.2702C38.6346 54.2027 38.9055 54.2384 39.134 54.3695C39.3624 54.5005 39.5299 54.7164 39.6001 54.9702C39.635 55.0969 39.6446 55.2293 39.6283 55.3597C39.612 55.4901 39.5701 55.6161 39.5051 55.7303C39.4401 55.8446 39.3532 55.9449 39.2494 56.0255C39.1456 56.1061 39.0269 56.1655 38.9001 56.2002L33.2201 57.7002L38.9001 59.2402C39.1653 59.2747 39.406 59.4131 39.5691 59.625C39.7323 59.8369 39.8046 60.105 39.7701 60.3702C39.7356 60.6354 39.5972 60.8761 39.3853 61.0392C39.1733 61.2024 38.9053 61.2747 38.6401 61.2402V61.2002Z" fill="black"/>
<path d="M48 77.3102C47.7742 77.3179 47.5525 77.249 47.3709 77.1146C47.1893 76.9802 47.0586 76.7883 47 76.5702L44.5 67.3202C44.4411 67.0676 44.4827 66.8022 44.6158 66.5797C44.749 66.3572 44.9634 66.1952 45.2137 66.1277C45.4641 66.0602 45.7308 66.0927 45.9578 66.2181C46.1847 66.3436 46.354 66.5523 46.43 66.8002L48 72.4802L49.54 66.8002C49.616 66.5523 49.7853 66.3436 50.0122 66.2181C50.2391 66.0927 50.5058 66.0602 50.7562 66.1277C51.0066 66.1952 51.2209 66.3572 51.3541 66.5797C51.4872 66.8022 51.5288 67.0676 51.47 67.3202L49 76.5702C48.9414 76.7883 48.8106 76.9802 48.629 77.1146C48.4475 77.249 48.2257 77.3179 48 77.3102Z" fill="black"/>
<path d="M57.3601 61.1999C57.2288 61.217 57.0954 61.208 56.9675 61.1736C56.8397 61.1391 56.7198 61.0797 56.6149 60.999C56.403 60.8358 56.2646 60.5951 56.2301 60.3299C56.1956 60.0647 56.2679 59.7967 56.4311 59.5847C56.5942 59.3728 56.8349 59.2344 57.1001 59.1999L62.7801 57.6599L57.1001 56.1699C56.9733 56.1352 56.8546 56.0758 56.7508 55.9952C56.647 55.9146 56.5601 55.8143 56.4951 55.7C56.4301 55.5858 56.3882 55.4599 56.3719 55.3294C56.3556 55.199 56.3652 55.0666 56.4001 54.9399C56.4703 54.6861 56.6378 54.4702 56.8662 54.3392C57.0946 54.2081 57.3655 54.1725 57.6201 54.2399L66.8701 56.7399C67.0819 56.7975 67.269 56.9232 67.4023 57.0976C67.5356 57.272 67.6078 57.4854 67.6078 57.7049C67.6078 57.9244 67.5356 58.1379 67.4023 58.3123C67.269 58.4867 67.0819 58.6123 66.8701 58.6699L57.6201 61.1699C57.5349 61.1898 57.4476 61.1998 57.3601 61.1999Z" fill="black"/>
<path d="M48.0001 62.88C46.9756 62.88 45.9741 62.5762 45.1222 62.007C44.2704 61.4378 43.6064 60.6288 43.2144 59.6823C42.8223 58.7358 42.7197 57.6943 42.9196 56.6895C43.1195 55.6846 43.6128 54.7616 44.3373 54.0372C45.0617 53.3128 45.9847 52.8194 46.9895 52.6196C47.9943 52.4197 49.0358 52.5223 49.9824 52.9143C50.9289 53.3064 51.7379 53.9703 52.3071 54.8222C52.8763 55.674 53.1801 56.6755 53.1801 57.7C53.1801 59.0738 52.6343 60.3914 51.6629 61.3628C50.6914 62.3343 49.3739 62.88 48.0001 62.88ZM48.0001 54.52C47.3711 54.52 46.7563 54.7065 46.2334 55.0559C45.7104 55.4054 45.3028 55.902 45.0621 56.4831C44.8214 57.0642 44.7585 57.7036 44.8812 58.3204C45.0039 58.9373 45.3067 59.5039 45.7515 59.9486C46.1962 60.3934 46.7628 60.6962 47.3797 60.8189C47.9965 60.9416 48.6359 60.8786 49.217 60.638C49.7981 60.3973 50.2947 59.9897 50.6441 59.4667C50.9936 58.9438 51.1801 58.329 51.1801 57.7C51.1774 56.8574 50.8416 56.0501 50.2458 55.4543C49.65 54.8585 48.8426 54.5227 48.0001 54.52Z" fill="black"/>
<path d="M48 23.4102C45.8814 23.4122 43.8097 22.7858 42.0472 21.6101C40.2846 20.4345 38.9103 18.7625 38.0982 16.8057C37.286 14.8489 37.0725 12.6951 37.4846 10.617C37.8967 8.53876 38.916 6.62948 40.4134 5.13066C41.9108 3.63184 43.8191 2.61082 45.8969 2.19676C47.9747 1.7827 50.1287 1.99421 52.0863 2.80453C54.0438 3.61485 55.7171 4.98757 56.8944 6.74904C58.0717 8.51051 58.7 10.5816 58.7 12.7002C58.6974 15.5382 57.5695 18.2592 55.5638 20.2669C53.558 22.2746 50.838 23.4049 48 23.4102ZM48 4.00023C46.2765 3.99826 44.5911 4.50766 43.1573 5.46397C41.7234 6.42027 40.6054 7.78049 39.945 9.37244C39.2845 10.9644 39.1112 12.7165 39.4469 14.407C39.7827 16.0975 40.6124 17.6504 41.8311 18.8691C43.0499 20.0878 44.6027 20.9176 46.2933 21.2534C47.9838 21.5891 49.7359 21.4158 51.3278 20.7553C52.9198 20.0948 54.28 18.9769 55.2363 17.543C56.1926 16.1091 56.702 14.4238 56.7 12.7002C56.6974 10.3937 55.7799 8.18232 54.1489 6.55133C52.5179 4.92034 50.3066 4.00288 48 4.00023Z" fill="black"/>
<path d="M23.2101 33.5701C23.0514 33.5694 22.8952 33.5309 22.7544 33.4579C22.6135 33.3848 22.4921 33.2794 22.4001 33.1501L18.6501 27.8301C17.8792 26.7493 17.5573 25.4118 17.7521 24.0986C17.9468 22.7855 18.643 21.5989 19.6944 20.7884C20.7457 19.9779 22.0704 19.6065 23.3899 19.7522C24.7094 19.898 25.921 20.5496 26.7701 21.5701L30.5401 26.9201C30.6271 27.0264 30.6913 27.1494 30.7287 27.2816C30.7661 27.4138 30.7758 27.5523 30.7573 27.6884C30.7388 27.8245 30.6925 27.9554 30.6212 28.0728C30.5499 28.1902 30.4552 28.2917 30.3429 28.3709C30.2307 28.45 30.1033 28.5053 29.9688 28.5331C29.8343 28.5609 29.6955 28.5606 29.561 28.5324C29.4266 28.5042 29.2994 28.4486 29.1874 28.3691C29.0754 28.2895 28.981 28.1877 28.9101 28.0701L25.1601 22.7601C24.7746 22.2828 24.2575 21.9293 23.6728 21.7435C23.0881 21.5577 22.4617 21.5478 21.8714 21.7151C21.2812 21.8824 20.7531 22.2194 20.3529 22.6843C19.9526 23.1493 19.6978 23.7216 19.6201 24.3301C19.565 24.7377 19.5924 25.1522 19.7006 25.5491C19.8088 25.9459 19.9957 26.3169 20.2501 26.6401L24.0001 32.0001C24.1519 32.2165 24.2119 32.4842 24.1669 32.7446C24.1219 33.0051 23.9757 33.2372 23.7601 33.3901C23.5985 33.503 23.4071 33.5656 23.2101 33.5701Z" fill="black"/>
<path d="M72.79 33.5698C72.5827 33.5714 72.38 33.5085 72.21 33.3898C71.9992 33.2323 71.8589 32.9981 71.8196 32.7379C71.7803 32.4777 71.8451 32.2125 72 31.9998L75.75 26.6798C76.0172 26.3587 76.2175 25.9874 76.3389 25.5878C76.4604 25.1881 76.5006 24.7682 76.4572 24.3527C76.4139 23.9373 76.2878 23.5347 76.0864 23.1687C75.8851 22.8028 75.6125 22.4808 75.2848 22.2218C74.957 21.9629 74.5808 21.7721 74.1782 21.6608C73.7756 21.5495 73.3548 21.5199 72.9406 21.5738C72.5263 21.6276 72.1271 21.7638 71.7664 21.9744C71.4056 22.185 71.0906 22.4656 70.84 22.7998L67.12 28.0698C67.0491 28.1874 66.9547 28.2892 66.8427 28.3687C66.7307 28.4483 66.6035 28.5039 66.4691 28.5321C66.3347 28.5603 66.1958 28.5605 66.0613 28.5327C65.9268 28.5049 65.7994 28.4497 65.6872 28.3705C65.5749 28.2913 65.4802 28.1899 65.4089 28.0725C65.3376 27.955 65.2913 27.8242 65.2728 27.6881C65.2543 27.552 65.264 27.4135 65.3014 27.2813C65.3388 27.1491 65.403 27.0261 65.49 26.9198L69.23 21.6098C69.6411 21.076 70.1532 20.6283 70.7373 20.2924C71.3213 19.9565 71.9658 19.739 72.6339 19.6522C73.302 19.5653 73.9807 19.611 74.6312 19.7864C75.2817 19.9619 75.8912 20.2637 76.425 20.6748C76.9589 21.0858 77.4065 21.598 77.7424 22.182C78.0783 22.766 78.2959 23.4105 78.3827 24.0786C78.4695 24.7468 78.4239 25.4254 78.2484 26.0759C78.0729 26.7264 77.7711 27.336 77.36 27.8698L73.6 33.1498C73.508 33.279 73.3866 33.3845 73.2457 33.4576C73.1049 33.5306 72.9487 33.5691 72.79 33.5698Z" fill="black"/>
<path d="M51.5999 22.7099C51.3347 22.7099 51.0803 22.6045 50.8928 22.417C50.7053 22.2295 50.5999 21.9751 50.5999 21.7099V16.4799C50.5999 15.7903 50.326 15.129 49.8384 14.6414C49.3508 14.1538 48.6895 13.8799 47.9999 13.8799C47.3103 13.8799 46.649 14.1538 46.1614 14.6414C45.6738 15.129 45.3999 15.7903 45.3999 16.4799V21.7099C45.3999 21.9751 45.2945 22.2295 45.107 22.417C44.9195 22.6045 44.6651 22.7099 44.3999 22.7099C44.1347 22.7099 43.8803 22.6045 43.6928 22.417C43.5053 22.2295 43.3999 21.9751 43.3999 21.7099V16.4799C43.3999 15.2599 43.8845 14.0899 44.7472 13.2272C45.6099 12.3645 46.7799 11.8799 47.9999 11.8799C49.2199 11.8799 50.3899 12.3645 51.2526 13.2272C52.1153 14.0899 52.5999 15.2599 52.5999 16.4799V21.7099C52.5999 21.9751 52.4945 22.2295 52.307 22.417C52.1195 22.6045 51.8651 22.7099 51.5999 22.7099Z" fill="black"/>
</svg>
