<svg width="512" height="512" viewBox="0 0 512 512" fill="none" xmlns="http://www.w3.org/2000/svg">
<rect width="512" height="512" rx="20" fill="#8DB4AF"/>
<path fill-rule="evenodd" clip-rule="evenodd" d="M205.714 256.5C205.714 284.114 228.228 306.5 256 306.5C283.772 306.5 306.286 284.114 306.286 256.5C306.286 228.886 283.772 206.5 256 206.5C237.911 206.5 222.053 215.997 213.194 230.25L212.49 230.25C210.626 226.251 208.349 222.481 205.714 218.994C217.182 203.817 235.438 194 256 194C290.715 194 318.857 221.982 318.857 256.5C318.857 291.018 290.715 319 256 319C221.285 319 193.143 291.018 193.143 256.5C193.143 228.886 170.629 206.5 142.857 206.5C115.085 206.5 92.5714 228.886 92.5714 256.5C92.5714 284.114 115.085 306.5 142.857 306.5C160.946 306.5 176.804 297.003 185.664 282.75L186.368 282.75C188.231 286.749 190.508 290.519 193.143 294.006C181.675 309.183 163.419 319 142.857 319C108.142 319 80 291.018 80 256.5C80 221.982 108.142 194 142.857 194C177.572 194 205.714 221.982 205.714 256.5ZM369.143 306.5C350.777 306.5 334.711 296.71 325.934 282.092C324.016 286.336 321.636 290.328 318.857 294.006C330.325 309.183 348.581 319 369.143 319C403.858 319 432 291.018 432 256.5C432 221.982 403.858 194 369.143 194C348.581 194 330.325 203.817 318.857 218.994C321.636 222.672 324.016 226.664 325.934 230.908C334.711 216.29 350.777 206.5 369.143 206.5C396.915 206.5 419.429 228.886 419.429 256.5C419.429 284.114 396.915 306.5 369.143 306.5ZM160.599 233.482C161.581 232.506 163.173 232.506 164.155 233.482L165.044 234.366C166.025 235.342 166.025 236.925 165.044 237.902L146.658 256.183L165.57 274.988C166.552 275.964 166.552 277.547 165.57 278.523L164.681 279.407C163.699 280.384 162.107 280.384 161.125 279.407L142.213 260.603L124.153 278.56C123.171 279.537 121.579 279.537 120.597 278.56L119.708 277.676C118.726 276.7 118.726 275.117 119.708 274.141L137.768 256.183L120.234 238.749C119.252 237.772 119.252 236.189 120.234 235.213L121.123 234.329C122.105 233.353 123.697 233.353 124.679 234.329L142.213 251.764L160.599 233.482ZM284.914 252.75C286.303 252.75 287.429 253.869 287.429 255.25V256.5C287.429 257.881 286.303 259 284.914 259L227.086 259C225.697 259 224.571 257.881 224.571 256.5V255.25C224.571 253.869 225.697 252.75 227.086 252.75L284.914 252.75ZM372.286 285.25C372.286 286.631 371.16 287.75 369.771 287.75H368.514C367.126 287.75 366 286.631 366 285.25V259.625H340.229C338.84 259.625 337.714 258.506 337.714 257.125V255.875C337.714 254.494 338.84 253.375 340.229 253.375H366V227.75C366 226.369 367.126 225.25 368.514 225.25H369.771C371.16 225.25 372.286 226.369 372.286 227.75V253.375H398.057C399.446 253.375 400.571 254.494 400.571 255.875V257.125C400.571 258.506 399.446 259.625 398.057 259.625H372.286V285.25Z" fill="white"/>
<path fill-rule="evenodd" clip-rule="evenodd" d="M369.771 287.75C371.16 287.75 372.286 286.631 372.286 285.25L372.286 259.625H398.057C399.446 259.625 400.571 258.506 400.571 257.125V255.875C400.571 254.494 399.446 253.375 398.057 253.375H372.286L372.286 227.75C372.286 226.369 371.16 225.25 369.771 225.25H368.514C367.126 225.25 366 226.369 366 227.75L366 253.375H340.229C338.84 253.375 337.714 254.494 337.714 255.875V257.125C337.714 258.506 338.84 259.625 340.229 259.625H366L366 285.25C366 286.631 367.126 287.75 368.514 287.75H369.771Z" fill="#2CCA3E"/>
<path d="M284.914 252.75C286.303 252.75 287.429 253.869 287.429 255.25L287.429 256.5C287.429 257.881 286.303 259 284.914 259L227.086 259C225.697 259 224.571 257.881 224.571 256.5L224.571 255.25C224.571 253.869 225.697 252.75 227.086 252.75L284.914 252.75Z" fill="#FFBD2B"/>
<path fill-rule="evenodd" clip-rule="evenodd" d="M164.155 233.482C163.173 232.506 161.581 232.506 160.599 233.482L142.213 251.764L124.679 234.329C123.697 233.353 122.105 233.353 121.123 234.329L120.234 235.213C119.252 236.189 119.252 237.772 120.234 238.749L137.768 256.183L119.708 274.141C118.726 275.117 118.726 276.7 119.708 277.676L120.597 278.56C121.579 279.537 123.171 279.537 124.153 278.56L142.213 260.603L161.125 279.407C162.107 280.384 163.699 280.384 164.681 279.407L165.57 278.523C166.552 277.547 166.552 275.964 165.57 274.988L146.658 256.183L165.044 237.902C166.025 236.925 166.025 235.342 165.044 234.366L164.155 233.482Z" fill="#FF6156"/>
</svg>
