<svg width="20" height="19" viewBox="0 0 20 19" fill="none" xmlns="http://www.w3.org/2000/svg">
<path d="M10 0.400391C15.5229 0.400391 20 3.89373 20 8.20415C20 12.5136 15.5229 16.007 10 16.007C9.45007 16.0072 8.90069 15.9722 8.35524 15.9021L4.15714 18.6508C3.68 18.9035 3.51143 18.8758 3.70762 18.257L4.55714 14.7503C1.81429 13.3583 0 10.9462 0 8.20415C0 3.89468 4.47714 0.400391 10 0.400391ZM15.6257 8.08497L17.0257 6.7273C17.1065 6.64331 17.1516 6.53121 17.1514 6.41462C17.1513 6.29802 17.1059 6.18604 17.025 6.10224C16.944 6.01845 16.8337 5.96939 16.7173 5.96541C16.6009 5.96142 16.4875 6.00282 16.401 6.08088L14.5648 7.85996V6.38979C14.5648 6.27044 14.5174 6.15597 14.4331 6.07158C14.3488 5.98718 14.2345 5.93977 14.1152 5.93977C13.996 5.93977 13.8817 5.98718 13.7974 6.07158C13.7131 6.15597 13.6657 6.27044 13.6657 6.38979V8.82769C13.6489 8.89723 13.6489 8.9698 13.6657 9.03935V10.4113C13.6657 10.5307 13.7131 10.6451 13.7974 10.7295C13.8817 10.8139 13.996 10.8613 14.1152 10.8613C14.2345 10.8613 14.3488 10.8139 14.4331 10.7295C14.5174 10.6451 14.5648 10.5307 14.5648 10.4113V9.11181L14.9714 8.71804L16.3314 10.6564C16.3654 10.7047 16.4085 10.746 16.4584 10.7777C16.5083 10.8094 16.5639 10.8309 16.6221 10.8411C16.6803 10.8513 16.7399 10.8499 16.7975 10.837C16.8552 10.8241 16.9098 10.8 16.9581 10.766C17.0064 10.732 17.0476 10.6888 17.0793 10.6389C17.1109 10.589 17.1325 10.5333 17.1426 10.475C17.1528 10.4168 17.1514 10.3571 17.1385 10.2994C17.1257 10.2416 17.1016 10.187 17.0676 10.1386L15.6257 8.08402V8.08497ZM12.8086 9.91936H11.4181V6.40409C11.4128 6.28844 11.3631 6.1793 11.2795 6.09935C11.1959 6.0194 11.0847 5.97478 10.969 5.97478C10.8534 5.97478 10.7422 6.0194 10.6586 6.09935C10.575 6.1793 10.5253 6.28844 10.52 6.40409V10.3694C10.52 10.6173 10.72 10.8194 10.9686 10.8194H12.8086C12.9278 10.8194 13.0421 10.772 13.1264 10.6876C13.2107 10.6032 13.2581 10.4887 13.2581 10.3694C13.2581 10.25 13.2107 10.1356 13.1264 10.0512C13.0421 9.96677 12.9278 9.91936 12.8086 9.91936ZM7.23048 8.87822L7.89333 7.25073L8.50095 8.87822H7.23048ZM9.63333 9.34349L9.63524 9.32823C9.63501 9.21486 9.59178 9.10581 9.51429 9.02314L8.5181 6.35356C8.47634 6.22634 8.39679 6.11491 8.29009 6.03416C8.18338 5.9534 8.0546 5.90717 7.92095 5.90164C7.78632 5.90104 7.65471 5.9415 7.54361 6.01763C7.43252 6.09376 7.34721 6.20196 7.29905 6.32781L5.71714 10.213C5.69482 10.2677 5.68348 10.3263 5.68377 10.3854C5.68406 10.4445 5.69597 10.503 5.71883 10.5575C5.7417 10.612 5.77505 10.6614 5.817 10.703C5.85896 10.7446 5.90868 10.7775 5.96333 10.7998C6.01799 10.8222 6.07651 10.8335 6.13554 10.8333C6.19458 10.833 6.25298 10.821 6.30742 10.7981C6.36185 10.7753 6.41125 10.7419 6.45279 10.6999C6.49433 10.6579 6.5272 10.6081 6.54952 10.5534L6.86381 9.77825H8.83524L9.12 10.541C9.13936 10.598 9.16995 10.6505 9.20997 10.6955C9.24998 10.7405 9.2986 10.7769 9.35295 10.8027C9.4073 10.8285 9.46627 10.8432 9.52636 10.8457C9.58646 10.8483 9.64646 10.8388 9.70282 10.8177C9.75917 10.7967 9.81073 10.7645 9.85443 10.7231C9.89814 10.6818 9.93311 10.632 9.95727 10.5769C9.98143 10.5217 9.99429 10.4623 9.99509 10.4021C9.99588 10.3419 9.9846 10.2821 9.9619 10.2264L9.63333 9.34349ZM6.46952 6.40886C6.46952 6.28967 6.42229 6.17535 6.3382 6.09098C6.2541 6.00662 6.14001 5.95909 6.02095 5.95884H2.93048C2.81126 5.95884 2.69692 6.00625 2.61261 6.09065C2.52831 6.17504 2.48095 6.2895 2.48095 6.40886C2.48095 6.52821 2.52831 6.64267 2.61261 6.72706C2.69692 6.81146 2.81126 6.85887 2.93048 6.85887H4.03524V10.4209C4.03524 10.5402 4.0826 10.6547 4.1669 10.7391C4.2512 10.8235 4.36554 10.8709 4.48476 10.8709C4.60398 10.8709 4.71832 10.8235 4.80262 10.7391C4.88693 10.6547 4.93429 10.5402 4.93429 10.4209V6.85887H6.02C6.26857 6.85887 6.46952 6.65674 6.46952 6.40886Z" fill="black"/>
</svg>
