<svg width="234" height="84" viewBox="0 0 234 84" fill="none" xmlns="http://www.w3.org/2000/svg">
<path fill-rule="evenodd" clip-rule="evenodd" d="M83.5714 42C83.5714 60.5568 98.5379 75.6 117 75.6C135.462 75.6 150.429 60.5568 150.429 42C150.429 23.4432 135.462 8.4 117 8.4C104.975 8.4 94.4328 14.782 88.5434 24.36L88.0754 24.36C86.8364 21.6727 85.323 19.1392 83.5714 16.7959C91.195 6.59689 103.331 -1.2011e-06 117 0C140.078 2.02786e-06 158.786 18.804 158.786 42C158.786 65.196 140.078 84 117 84C93.9224 84 75.2143 65.1959 75.2143 42C75.2143 23.4432 60.2478 8.4 41.7857 8.4C23.3236 8.4 8.35714 23.4432 8.35714 42C8.35714 60.5568 23.3236 75.6 41.7857 75.6C53.8108 75.6 64.3529 69.218 70.2423 59.64L70.7103 59.64C71.9493 62.3273 73.4627 64.8608 75.2143 67.2041C67.5907 77.4031 55.4547 84 41.7857 84C18.7081 84 0 65.196 0 42C0 18.804 18.7081 3.67176e-06 41.7857 3.67176e-06C64.8633 3.67176e-06 83.5714 18.804 83.5714 42ZM192.214 75.6C180.005 75.6 169.325 69.0211 163.49 59.1979C162.215 62.0497 160.633 64.7327 158.786 67.2041C166.409 77.4031 178.545 84 192.214 84C215.292 84 234 65.196 234 42C234 18.804 215.292 3.67176e-06 192.214 3.67176e-06C178.545 3.67176e-06 166.409 6.59689 158.786 16.7959C160.633 19.2673 162.215 21.9503 163.49 24.8021C169.325 14.9789 180.005 8.4 192.214 8.4C210.676 8.4 225.643 23.4432 225.643 42C225.643 60.5568 210.676 75.6 192.214 75.6ZM53.5798 26.5321C54.2327 25.876 55.2908 25.876 55.9437 26.5321L56.5346 27.126C57.1873 27.7821 57.1873 28.8458 56.5346 29.5019L44.3121 41.7871L56.8843 54.4239C57.5372 55.08 57.5372 56.1437 56.8843 56.7997L56.2934 57.3937C55.6407 58.0498 54.5824 58.0498 53.9297 57.3937L41.3575 44.7569L29.3515 56.8245C28.6988 57.4806 27.6404 57.4806 26.9875 56.8245L26.3967 56.2305C25.744 55.5744 25.744 54.5107 26.3967 53.8547L38.4027 41.787L26.7466 30.0711C26.0937 29.415 26.0937 28.3513 26.7466 27.6952L27.3375 27.1013C27.9902 26.4452 29.0485 26.4452 29.7012 27.1013L41.3573 38.8172L53.5798 26.5321ZM136.221 39.48C137.145 39.48 137.893 40.2322 137.893 41.16V42C137.893 42.9278 137.145 43.68 136.221 43.68L97.7786 43.68C96.8555 43.68 96.1071 42.9278 96.1071 42V41.16C96.1071 40.2322 96.8555 39.48 97.7786 39.48L136.221 39.48ZM194.304 61.32C194.304 62.2478 193.555 63 192.632 63H191.796C190.873 63 190.125 62.2479 190.125 61.32V44.1H172.993C172.07 44.1 171.321 43.3478 171.321 42.42V41.58C171.321 40.6521 172.07 39.9 172.993 39.9H190.125V22.68C190.125 21.7522 190.873 21 191.796 21H192.632C193.555 21 194.304 21.7522 194.304 22.68V39.9H211.436C212.359 39.9 213.107 40.6521 213.107 41.58V42.42C213.107 43.3478 212.359 44.1 211.436 44.1H194.304V61.32Z" fill="#F3F3F3"/>
<path fill-rule="evenodd" clip-rule="evenodd" d="M192.632 63C193.555 63 194.304 62.2478 194.304 61.32L194.304 44.1H211.436C212.359 44.1 213.107 43.3478 213.107 42.42V41.58C213.107 40.6522 212.359 39.9 211.436 39.9H194.304L194.304 22.68C194.304 21.7522 193.555 21 192.632 21H191.796C190.873 21 190.125 21.7522 190.125 22.68L190.125 39.9H172.993C172.07 39.9 171.321 40.6522 171.321 41.58V42.42C171.321 43.3478 172.07 44.1 172.993 44.1H190.125L190.125 61.32C190.125 62.2478 190.873 63 191.796 63H192.632Z" fill="#2CCA3E"/>
<path d="M136.221 39.48C137.144 39.48 137.893 40.2321 137.893 41.16L137.893 42C137.893 42.9278 137.144 43.68 136.221 43.68L97.7785 43.68C96.8554 43.68 96.1071 42.9278 96.1071 42L96.1071 41.16C96.1071 40.2321 96.8554 39.48 97.7785 39.48L136.221 39.48Z" fill="#FFBD2B"/>
<path fill-rule="evenodd" clip-rule="evenodd" d="M55.9437 26.5321C55.2909 25.876 54.2326 25.876 53.5799 26.5321L41.3574 38.8173L29.7012 27.1013C29.0484 26.4452 27.9901 26.4452 27.3374 27.1013L26.7465 27.6953C26.0937 28.3514 26.0937 29.4151 26.7465 30.0712L38.4027 41.7871L26.3967 53.8547C25.7439 54.5108 25.7439 55.5745 26.3967 56.2306L26.9876 56.8245C27.6403 57.4806 28.6986 57.4806 29.3514 56.8245L41.3574 44.757L53.9297 57.3938C54.5824 58.0498 55.6407 58.0498 56.2935 57.3938L56.8844 56.7998C57.5371 56.1437 57.5371 55.08 56.8844 54.4239L44.3121 41.7871L56.5346 29.5019C57.1873 28.8459 57.1873 27.7821 56.5346 27.1261L55.9437 26.5321Z" fill="#FF6156"/>
</svg>
