<svg width="182" height="33" viewBox="0 0 182 33" fill="none" xmlns="http://www.w3.org/2000/svg">
<path d="M168.173 32.3294L170.866 25.1647L164.213 7.44702H168.677L172.55 18C172.655 18.247 172.753 18.5176 172.846 18.8117C172.938 19.1059 173.025 19.4 173.106 19.6941C173.176 19.4 173.257 19.1117 173.349 18.8294C173.454 18.5353 173.558 18.2588 173.662 18L177.536 7.44702H182L172.655 32.3294H168.173Z" fill="#F3F3F3"/>
<path d="M154.359 25.9059C152.077 25.9059 150.288 25.0706 148.991 23.4C147.694 21.7294 147.046 19.4118 147.046 16.4471C147.046 14.5647 147.353 12.9177 147.966 11.5059C148.58 10.0941 149.437 8.99412 150.537 8.20589C151.649 7.41765 152.94 7.02353 154.411 7.02353C155.986 7.02353 157.277 7.61177 158.284 8.78824V1.99412L162.61 0V25.4824H158.284V24C157.427 25.2706 156.119 25.9059 154.359 25.9059ZM155.071 21.6882C155.812 21.6882 156.443 21.5588 156.964 21.3C157.485 21.0294 157.925 20.6294 158.284 20.1V12.8118C157.925 12.3177 157.456 11.9294 156.877 11.6471C156.31 11.3647 155.708 11.2235 155.071 11.2235C153.901 11.2235 152.998 11.6765 152.361 12.5824C151.724 13.4765 151.406 14.7647 151.406 16.4471C151.406 17.553 151.55 18.5 151.84 19.2882C152.129 20.0647 152.546 20.6588 153.091 21.0706C153.635 21.4824 154.295 21.6882 155.071 21.6882Z" fill="#F3F3F3"/>
<path d="M136.393 25.9059C134.111 25.9059 132.322 25.0706 131.025 23.4C129.728 21.7294 129.08 19.4118 129.08 16.4471C129.08 14.5647 129.386 12.9177 130 11.5059C130.614 10.0941 131.471 8.99412 132.571 8.20589C133.683 7.41765 134.974 7.02353 136.445 7.02353C138.02 7.02353 139.311 7.61177 140.318 8.78824V1.99412L144.643 0V25.4824H140.318V24C139.461 25.2706 138.153 25.9059 136.393 25.9059ZM137.105 21.6882C137.846 21.6882 138.477 21.5588 138.998 21.3C139.519 21.0294 139.959 20.6294 140.318 20.1V12.8118C139.959 12.3177 139.49 11.9294 138.911 11.6471C138.344 11.3647 137.742 11.2235 137.105 11.2235C135.935 11.2235 135.032 11.6765 134.395 12.5824C133.758 13.4765 133.44 14.7647 133.44 16.4471C133.44 17.553 133.584 18.5 133.874 19.2882C134.163 20.0647 134.58 20.6588 135.124 21.0706C135.669 21.4824 136.329 21.6882 137.105 21.6882Z" fill="#F3F3F3"/>
<path d="M117.944 25.9059C115.964 25.9059 114.429 25.2823 113.341 24.0353C112.252 22.7764 111.708 21 111.708 18.7059V7.44702H116.05V17.3294C116.05 18.847 116.305 19.9529 116.815 20.647C117.324 21.3411 118.129 21.6882 119.229 21.6882C120.41 21.6882 121.279 21.3411 121.835 20.647C122.402 19.9411 122.686 18.8588 122.686 17.4V7.44702H127.011V25.4823H122.686V23.7882C122.142 24.4941 121.47 25.0235 120.671 25.3764C119.883 25.7294 118.974 25.9059 117.944 25.9059Z" fill="#F3F3F3"/>
<path d="M90.1537 25.4824V0.776489H100.645C102.626 0.776489 104.189 1.10002 105.335 1.74708C106.482 2.38237 107.298 3.21179 107.785 4.23531C108.271 5.24708 108.514 6.30591 108.514 7.41179C108.514 8.51767 108.277 9.52944 107.802 10.4471C107.327 11.353 106.551 12.053 105.474 12.5471C106.354 12.8647 107.078 13.3236 107.646 13.9236C108.225 14.5118 108.647 15.1824 108.914 15.9353C109.192 16.6765 109.331 17.4294 109.331 18.1941C109.331 19.0647 109.186 19.9353 108.896 20.8059C108.618 21.6647 108.161 22.4471 107.524 23.153C106.887 23.8589 106.042 24.4236 104.988 24.8471C103.946 25.2706 102.66 25.4824 101.132 25.4824H90.1537ZM94.6526 21.1941H101.427C102.296 21.1941 102.973 21.0412 103.459 20.7353C103.957 20.4294 104.305 20.0471 104.502 19.5883C104.71 19.1177 104.814 18.653 104.814 18.1941C104.814 17.6294 104.693 17.0941 104.45 16.5883C104.218 16.0706 103.784 15.6471 103.147 15.3177C102.521 14.9883 101.612 14.8236 100.42 14.8236H94.6526V21.1941ZM94.6526 10.7118H100.09C101.41 10.7118 102.382 10.453 103.008 9.93532C103.645 9.40591 103.963 8.70591 103.963 7.83532C103.963 7.38826 103.882 6.95296 103.72 6.52944C103.558 6.09414 103.245 5.73532 102.782 5.45296C102.319 5.17061 101.636 5.02943 100.732 5.02943H94.6526V10.7118Z" fill="#F3F3F3"/>
<path d="M82.1282 25.4824V1.99412L86.4708 0V25.4824H82.1282Z" fill="#F3F3F3"/>
<path d="M69.9466 25.9059C68.0127 25.9059 66.4784 25.3765 65.3435 24.3177C64.2202 23.2471 63.6586 21.8 63.6586 19.9765C63.6586 18.8 63.9481 17.7706 64.5271 16.8883C65.1177 15.9942 65.9341 15.3059 66.9763 14.8236C68.0301 14.3294 69.2576 14.0824 70.6588 14.0824C71.4347 14.0824 72.1816 14.1589 72.8996 14.3118C73.6292 14.453 74.2661 14.6589 74.8104 14.9294V13.8C74.8104 12.7883 74.5266 12.0294 73.9592 11.5236C73.4034 11.0059 72.5812 10.7471 71.4926 10.7471C70.6241 10.7471 69.7324 10.9059 68.8176 11.2236C67.9027 11.5412 66.9763 12.0118 66.0383 12.6353L64.7355 9.15885C65.7546 8.4765 66.8895 7.95297 68.1401 7.58827C69.3908 7.2118 70.653 7.02356 71.9269 7.02356C74.3124 7.02356 76.0958 7.60003 77.277 8.75297C78.4581 9.89415 79.0487 11.6 79.0487 13.8706V25.4824H74.8104V24.0353C74.2082 24.6471 73.4902 25.1118 72.6564 25.4295C71.8342 25.7471 70.931 25.9059 69.9466 25.9059ZM70.9541 22.1824C71.6721 22.1824 72.3611 22.0412 73.0212 21.7589C73.6929 21.4647 74.2893 21.053 74.8104 20.5236V18.3883C74.3124 18.1412 73.7566 17.953 73.1428 17.8236C72.5406 17.6824 71.9385 17.6118 71.3363 17.6118C70.2593 17.6118 69.4082 17.8236 68.7828 18.2471C68.1691 18.6589 67.8622 19.2353 67.8622 19.9765C67.8622 20.6706 68.1343 21.2118 68.6786 21.6C69.2229 21.9883 69.9814 22.1824 70.9541 22.1824Z" fill="#F3F3F3"/>
<path d="M46.1915 25.4824V7.44709H50.5341V9.1765C51.1016 8.45885 51.779 7.92356 52.5665 7.57062C53.3655 7.20591 54.2746 7.02356 55.2936 7.02356C57.2738 7.02356 58.8024 7.64709 59.8794 8.89415C60.9564 10.1294 61.4949 11.9118 61.4949 14.2412V25.4824H57.1696V15.6C57.1696 14.0824 56.9091 12.9765 56.388 12.2824C55.8784 11.5765 55.0794 11.2236 53.9908 11.2236C52.8097 11.2236 51.9353 11.5765 51.3679 12.2824C50.8121 12.9765 50.5341 14.0589 50.5341 15.5294V25.4824H46.1915Z" fill="#F3F3F3"/>
<path d="M34.4623 33L32.0651 29.3118C33.7559 29.1824 35.0644 28.9883 35.9908 28.7295C36.9289 28.4706 37.5831 28.1 37.9537 27.6177C38.3243 27.1353 38.5096 26.5059 38.5096 25.7295V24.4236C37.6063 25.4118 36.3325 25.9059 34.6881 25.9059C33.1479 25.9059 31.822 25.5295 30.7102 24.7765C29.5985 24.0118 28.7416 22.9236 28.1394 21.5118C27.5488 20.0883 27.2535 18.4 27.2535 16.4471C27.2535 14.5412 27.5604 12.8824 28.1742 11.4706C28.7995 10.0589 29.668 8.96474 30.7797 8.18827C31.903 7.41179 33.2174 7.02356 34.7228 7.02356C35.5103 7.02356 36.2282 7.14709 36.8767 7.39415C37.5368 7.64121 38.0811 8.00003 38.5096 8.47062V7.44709H42.8348V23.8589C42.8348 25.4589 42.69 26.8118 42.4005 27.9177C42.111 29.0236 41.6362 29.9295 40.9762 30.6353C40.3277 31.3412 39.4707 31.8765 38.4053 32.2412C37.34 32.6177 36.0256 32.8706 34.4623 33ZM35.4003 21.6883C36.014 21.6883 36.5872 21.5471 37.1199 21.2647C37.6642 20.9706 38.1274 20.5765 38.5096 20.0824V12.8118C38.1853 12.353 37.7395 11.9765 37.172 11.6824C36.6046 11.3765 36.0314 11.2236 35.4524 11.2236C34.2017 11.2236 33.2463 11.6706 32.5863 12.5647C31.9378 13.4471 31.6135 14.7412 31.6135 16.4471C31.6135 17.553 31.7583 18.5 32.0478 19.2883C32.3489 20.0647 32.7831 20.6589 33.3505 21.0706C33.918 21.4824 34.6012 21.6883 35.4003 21.6883Z" fill="#F3F3F3"/>
<path d="M20.4721 25.4823V7.44705H24.8147V25.4823H20.4721ZM22.6434 5.18822C21.9486 5.18822 21.3464 4.93528 20.8369 4.4294C20.3389 3.91175 20.09 3.29998 20.09 2.5941C20.09 1.88822 20.3389 1.28822 20.8369 0.794102C21.3348 0.28822 21.937 0.0352783 22.6434 0.0352783C23.373 0.0352783 23.9809 0.282337 24.4673 0.776454C24.9537 1.27057 25.1969 1.87646 25.1969 2.5941C25.1969 3.31175 24.9479 3.92351 24.4499 4.4294C23.9636 4.93528 23.3614 5.18822 22.6434 5.18822Z" fill="#F3F3F3"/>
<path d="M9.31053 25.9059C7.79352 25.9059 6.41547 25.6353 5.17638 25.0941C3.93729 24.5529 2.87191 23.7882 1.98023 22.8C1.10013 21.8 0.44005 20.6235 0 19.2706L4.08204 17.7353C4.60316 18.8647 5.32692 19.7941 6.25334 20.5235C7.19134 21.2412 8.24515 21.6 9.41475 21.6C10.6538 21.6 11.6382 21.3353 12.3677 20.8059C13.1089 20.2764 13.4794 19.5059 13.4794 18.4941C13.4794 17.8 13.2594 17.2235 12.8194 16.7647C12.3909 16.2941 11.8061 15.8941 11.0649 15.5647C10.3354 15.2235 9.5074 14.8941 8.58098 14.5764C7.6893 14.2706 6.79182 13.9294 5.88856 13.5529C4.9853 13.1764 4.15731 12.7176 3.4046 12.1764C2.65188 11.6235 2.04392 10.9294 1.58071 10.0941C1.12908 9.25879 0.903261 8.23526 0.903261 7.0235C0.903261 5.81173 1.22172 4.69997 1.85863 3.6882C2.49555 2.67644 3.41618 1.87055 4.62053 1.27055C5.83645 0.658788 7.30715 0.352905 9.03261 0.352905C10.4454 0.352905 11.6961 0.599964 12.7846 1.09408C13.8847 1.57643 14.7938 2.23526 15.5118 3.07055C16.2297 3.90585 16.7277 4.85291 17.0056 5.91173L12.9757 7.27056C12.6514 6.52938 12.1535 5.91173 11.4818 5.41761C10.8218 4.91173 9.92429 4.65879 8.78942 4.65879C7.72404 4.65879 6.89605 4.87055 6.30545 5.29408C5.71486 5.71761 5.41956 6.31761 5.41956 7.09408C5.41956 7.6235 5.61643 8.07644 6.01016 8.45291C6.41547 8.81762 6.95395 9.14703 7.6256 9.44115C8.30884 9.73526 9.07893 10.0353 9.93587 10.3411C10.897 10.6706 11.8524 11.047 12.802 11.4706C13.7631 11.8823 14.6317 12.3882 15.4075 12.9882C16.195 13.5882 16.8261 14.3353 17.3009 15.2294C17.7757 16.1117 18.0131 17.1941 18.0131 18.4764C18.0131 20.0529 17.6252 21.3941 16.8493 22.5C16.085 23.6059 15.0486 24.4529 13.74 25.0412C12.4314 25.6176 10.9549 25.9059 9.31053 25.9059Z" fill="#F3F3F3"/>
</svg>
