<svg width="476" height="86" viewBox="0 0 476 86" fill="none" xmlns="http://www.w3.org/2000/svg">
<path d="M439.837 84.2524L446.879 65.5808L429.479 19.4075H441.155L451.286 46.9091C451.558 47.5529 451.816 48.2581 452.058 49.0246C452.3 49.7911 452.528 50.5576 452.74 51.3241C452.921 50.5576 453.133 49.8064 453.376 49.0706C453.648 48.3041 453.921 47.5836 454.193 46.9091L464.324 19.4075H476L451.558 84.2524H439.837Z" fill="black"/>
<path d="M403.707 67.5123C397.74 67.5123 393.061 65.3355 389.669 60.9819C386.277 56.6282 384.581 50.5883 384.581 42.8621C384.581 37.9565 385.383 33.6642 386.989 29.985C388.594 26.3059 390.835 23.4392 393.712 21.385C396.62 19.3309 399.997 18.3038 403.843 18.3038C407.962 18.3038 411.339 19.8367 413.974 22.9027V5.19679L425.286 0V66.4086H413.974V62.5455C411.733 65.8567 408.311 67.5123 403.707 67.5123ZM405.57 56.5209C407.508 56.5209 409.159 56.1836 410.522 55.5091C411.884 54.804 413.035 53.7615 413.974 52.3818V33.3883C413.035 32.1006 411.809 31.0888 410.294 30.353C408.81 29.6171 407.235 29.2492 405.57 29.2492C402.511 29.2492 400.148 30.4296 398.482 32.7904C396.817 35.1205 395.984 38.4777 395.984 42.8621C395.984 45.7441 396.362 48.2122 397.12 50.2663C397.877 52.2899 398.967 53.8382 400.391 54.9113C401.814 55.9843 403.54 56.5209 405.57 56.5209Z" fill="black"/>
<path d="M356.719 67.5123C350.752 67.5123 346.073 65.3355 342.681 60.9819C339.289 56.6282 337.593 50.5883 337.593 42.8621C337.593 37.9565 338.395 33.6642 340 29.985C341.606 26.3059 343.847 23.4392 346.724 21.385C349.632 19.3309 353.009 18.3038 356.855 18.3038C360.974 18.3038 364.351 19.8367 366.986 22.9027V5.19679L378.298 0V66.4086H366.986V62.5455C364.745 65.8567 361.322 67.5123 356.719 67.5123ZM358.581 56.5209C360.52 56.5209 362.17 56.1836 363.533 55.5091C364.896 54.804 366.047 53.7615 366.986 52.3818V33.3883C366.047 32.1006 364.82 31.0888 363.306 30.353C361.822 29.6171 360.247 29.2492 358.581 29.2492C355.522 29.2492 353.16 30.4296 351.494 32.7904C349.828 35.1205 348.996 38.4777 348.996 42.8621C348.996 45.7441 349.374 48.2122 350.131 50.2663C350.888 52.2899 351.979 53.8382 353.402 54.9113C354.826 55.9843 356.552 56.5209 358.581 56.5209Z" fill="black"/>
<path d="M308.468 67.5123C303.289 67.5123 299.276 65.8874 296.429 62.6374C293.582 59.3569 292.159 54.7273 292.159 48.7487V19.4075H303.517V45.1615C303.517 49.1166 304.183 51.9986 305.515 53.8075C306.848 55.6164 308.953 56.5209 311.83 56.5209C314.919 56.5209 317.191 55.6164 318.645 53.8075C320.129 51.9679 320.871 49.1472 320.871 45.3455V19.4075H332.183V66.4086H320.871V61.9936C319.447 63.8332 317.691 65.2129 315.601 66.1326C313.541 67.0524 311.164 67.5123 308.468 67.5123Z" fill="black"/>
<path d="M235.787 66.4086V2.02353H263.226C268.406 2.02353 272.494 2.86667 275.493 4.55294C278.491 6.20856 280.626 8.37006 281.898 11.0374C283.17 13.6742 283.806 16.4335 283.806 19.3155C283.806 22.1975 283.186 24.8342 281.944 27.2257C280.702 29.5865 278.673 31.4107 275.856 32.6984C278.158 33.5262 280.051 34.7219 281.535 36.2856C283.049 37.8186 284.155 39.5662 284.851 41.5284C285.578 43.4599 285.942 45.4221 285.942 47.415C285.942 49.6838 285.563 51.9526 284.806 54.2214C284.079 56.4596 282.883 58.4984 281.217 60.338C279.551 62.1776 277.34 63.6492 274.584 64.753C271.858 65.8567 268.496 66.4086 264.499 66.4086H235.787ZM247.553 55.2332H265.271C267.542 55.2332 269.314 54.8346 270.586 54.0375C271.889 53.2403 272.797 52.2439 273.312 51.0482C273.857 49.8218 274.13 48.6107 274.13 47.415C274.13 45.9433 273.812 44.5483 273.176 43.23C272.57 41.881 271.434 40.7772 269.768 39.9187C268.133 39.0603 265.755 38.631 262.636 38.631H247.553V55.2332ZM247.553 27.9155H261.773C265.225 27.9155 267.77 27.241 269.405 25.892C271.071 24.5123 271.904 22.6881 271.904 20.4193C271.904 19.2542 271.692 18.1198 271.268 17.0161C270.844 15.8816 270.026 14.9465 268.814 14.2107C267.603 13.4749 265.816 13.107 263.454 13.107H247.553V27.9155Z" fill="black"/>
<path d="M214.797 66.4086V5.19679L226.154 0V66.4086H214.797Z" fill="black"/>
<path d="M182.937 67.5123C177.88 67.5123 173.867 66.1326 170.898 63.3732C167.961 60.5832 166.492 56.8121 166.492 52.0599C166.492 48.9939 167.249 46.3112 168.763 44.0117C170.308 41.6816 172.443 39.888 175.169 38.631C177.925 37.3433 181.135 36.6994 184.8 36.6994C186.829 36.6994 188.783 36.8987 190.661 37.2973C192.569 37.6652 194.234 38.2018 195.658 38.9069V35.9636C195.658 33.3269 194.916 31.3493 193.432 30.031C191.978 28.682 189.828 28.0075 186.981 28.0075C184.709 28.0075 182.377 28.4214 179.984 29.2492C177.592 30.077 175.169 31.3034 172.716 32.9283L169.308 23.8684C171.974 22.0902 174.942 20.7258 178.213 19.7754C181.484 18.7943 184.785 18.3037 188.117 18.3037C194.356 18.3037 199.02 19.806 202.109 22.8107C205.198 25.7846 206.743 30.2303 206.743 36.1476V66.4085H195.658V62.6374C194.083 64.2317 192.205 65.4428 190.025 66.2706C187.874 67.0984 185.512 67.5123 182.937 67.5123ZM185.572 57.8085C187.45 57.8085 189.252 57.4406 190.979 56.7048C192.735 55.9383 194.295 54.8652 195.658 53.4855V47.9208C194.356 47.277 192.902 46.7864 191.297 46.4492C189.722 46.0813 188.147 45.8973 186.572 45.8973C183.755 45.8973 181.529 46.4492 179.894 47.5529C178.288 48.626 177.486 50.1283 177.486 52.0599C177.486 53.8688 178.198 55.2791 179.621 56.2909C181.045 57.3027 183.028 57.8085 185.572 57.8085Z" fill="black"/>
<path d="M120.809 66.4086V19.4075H132.166V23.9144C133.65 22.0442 135.422 20.6492 137.482 19.7294C139.571 18.7789 141.949 18.3037 144.614 18.3037C149.793 18.3037 153.791 19.9287 156.608 23.1786C159.424 26.3978 160.833 31.0428 160.833 37.1133V66.4086H149.521V40.6545C149.521 36.6994 148.839 33.8174 147.476 32.0085C146.144 30.169 144.054 29.2492 141.207 29.2492C138.118 29.2492 135.831 30.169 134.347 32.0085C132.893 33.8174 132.166 36.6381 132.166 40.4706V66.4086H120.809Z" fill="black"/>
<path d="M90.1321 86L83.8627 76.3882C88.2846 76.051 91.707 75.5451 94.13 74.8706C96.5832 74.1961 98.2944 73.2303 99.2636 71.9733C100.233 70.7162 100.717 69.0759 100.717 67.0524V63.6492C98.355 66.2246 95.0234 67.5123 90.7227 67.5123C86.6946 67.5123 83.2267 66.5312 80.3192 64.569C77.4116 62.5761 75.1704 59.7401 73.5955 56.061C72.0509 52.3511 71.2786 47.9515 71.2786 42.862C71.2786 37.8952 72.0812 33.5722 73.6864 29.893C75.3219 26.2139 77.5934 23.3625 80.5009 21.339C83.4387 19.3155 86.8763 18.3037 90.8136 18.3037C92.8731 18.3037 94.7509 18.6256 96.4469 19.2695C98.1733 19.9133 99.5968 20.8485 100.717 22.0748V19.4075H112.03V62.1775C112.03 66.3472 111.651 69.8731 110.894 72.7551C110.137 75.6371 108.895 77.9979 107.168 79.8374C105.472 81.677 103.231 83.072 100.445 84.0225C97.6584 85.0036 94.2208 85.6628 90.1321 86ZM92.5854 56.5208C94.1906 56.5208 95.6898 56.1529 97.083 55.4171C98.5064 54.6506 99.7179 53.6235 100.717 52.3358V33.3882C99.8693 32.1925 98.7033 31.2114 97.2192 30.4449C95.7352 29.6477 94.236 29.2492 92.7216 29.2492C89.4507 29.2492 86.952 30.4142 85.2257 32.7444C83.5296 35.0438 82.6816 38.4164 82.6816 42.862C82.6816 45.744 83.0601 48.2121 83.8173 50.2663C84.6048 52.2898 85.7405 53.8381 87.2246 54.9112C88.7086 55.9843 90.4956 56.5208 92.5854 56.5208Z" fill="black"/>
<path d="M53.5424 66.4086V19.4075H64.9V66.4086H53.5424ZM59.2212 13.5208C57.404 13.5208 55.8291 12.8617 54.4965 11.5433C53.1941 10.1943 52.543 8.59997 52.543 6.7604C52.543 4.92083 53.1941 3.35719 54.4965 2.06949C55.7988 0.75113 57.3737 0.0919495 59.2212 0.0919495C61.1293 0.0919495 62.7193 0.735799 63.9914 2.0235C65.2634 3.3112 65.8995 4.89017 65.8995 6.7604C65.8995 8.63063 65.2483 10.2249 63.946 11.5433C62.6739 12.8617 61.099 13.5208 59.2212 13.5208Z" fill="black"/>
<path d="M24.3506 67.5123C20.383 67.5123 16.7789 66.8071 13.5382 65.3968C10.2975 63.9864 7.51114 61.9936 5.17905 59.4182C2.87725 56.8121 1.1509 53.7461 0 50.2203L10.6761 46.2192C12.039 49.1625 13.9319 51.5846 16.3549 53.4855C18.8081 55.3558 21.5642 56.2909 24.6232 56.2909C27.8639 56.2909 30.4383 55.601 32.3464 54.2214C34.2847 52.8417 35.2539 50.8335 35.2539 48.1968C35.2539 46.3879 34.6784 44.8855 33.5275 43.6898C32.4069 42.4634 30.8774 41.421 28.9391 40.5625C27.031 39.6734 24.8655 38.8149 22.4426 37.9871C20.1105 37.19 17.7632 36.3009 15.4009 35.3198C13.0385 34.3386 10.873 33.1429 8.90433 31.7326C6.93569 30.2916 5.34563 28.4827 4.13415 26.3058C2.95297 24.129 2.36237 21.4616 2.36237 18.3037C2.36237 15.1458 3.19526 12.2484 4.86104 9.61172C6.52682 6.975 8.93462 4.87482 12.0845 3.31118C15.2646 1.71689 19.111 0.919739 23.6237 0.919739C27.3187 0.919739 30.5897 1.56359 33.4367 2.85129C36.3139 4.10833 38.6914 5.82526 40.5692 8.00209C42.447 10.1789 43.7494 12.647 44.4762 15.4064L33.9364 18.9476C33.0884 17.016 31.786 15.4064 30.0294 14.1187C28.3031 12.8003 25.9558 12.1411 22.9877 12.1411C20.2013 12.1411 18.0358 12.693 16.4912 13.7967C14.9466 14.9005 14.1742 16.4641 14.1742 18.4877C14.1742 19.8673 14.6891 21.0477 15.7189 22.0288C16.7789 22.9793 18.1873 23.8378 19.9439 24.6042C21.7308 25.3707 23.7449 26.1525 25.9861 26.9497C28.4999 27.8082 30.9986 28.7893 33.4821 29.893C35.9959 30.9661 38.2674 32.2845 40.2967 33.8481C42.3562 35.4117 44.0068 37.3586 45.2486 39.6887C46.4903 41.9882 47.1112 44.8089 47.1112 48.1508C47.1112 52.2592 46.0966 55.7543 44.0674 58.6363C42.0684 61.5183 39.3578 63.7258 35.9353 65.2588C32.5129 66.7611 28.6514 67.5123 24.3506 67.5123Z" fill="black"/>
</svg>
