<svg width="100" height="100" viewBox="0 0 100 100" fill="none" xmlns="http://www.w3.org/2000/svg">
<rect x="0.5" y="0.5" width="99" height="99" rx="7.5" fill="white" stroke="#CED1D8"/>
<path fill-rule="evenodd" clip-rule="evenodd" d="M36.5714 49C36.5714 55.6274 41.6882 61 48 61C54.3118 61 59.4286 55.6274 59.4286 49C59.4286 42.3726 54.3118 37 48 37C43.8889 37 40.2847 39.2793 38.2713 42.7L38.1113 42.7C37.6877 41.7403 37.1703 40.8354 36.5714 39.9985C39.1778 36.356 43.3269 34 48 34C55.8898 34 62.2857 40.7157 62.2857 49C62.2857 57.2843 55.8898 64 48 64C40.1102 64 33.7143 57.2843 33.7143 49C33.7143 42.3726 28.5975 37 22.2857 37C15.9739 37 10.8571 42.3726 10.8571 49C10.8571 55.6274 15.9739 61 22.2857 61C26.3969 61 30.001 58.7207 32.0145 55.3L32.1745 55.3C32.5981 56.2597 33.1155 57.1646 33.7143 58.0015C31.1079 61.644 26.9589 64 22.2857 64C14.3959 64 8 57.2843 8 49C8 40.7157 14.3959 34 22.2857 34C30.1755 34 36.5714 40.7157 36.5714 49ZM73.7143 61C69.5402 61 65.8888 58.6504 63.8942 55.1421C63.4583 56.1606 62.9173 57.1188 62.2857 58.0015C64.8921 61.644 69.0411 64 73.7143 64C81.6041 64 88 57.2843 88 49C88 40.7157 81.6041 34 73.7143 34C69.0411 34 64.8921 36.356 62.2857 39.9985C62.9173 40.8812 63.4583 41.8394 63.8942 42.8579C65.8888 39.3496 69.5402 37 73.7143 37C80.0261 37 85.1429 42.3726 85.1429 49C85.1429 55.6274 80.0261 61 73.7143 61ZM26.3179 43.4757C26.5411 43.2414 26.9029 43.2414 27.1261 43.4757L27.3281 43.6879C27.5512 43.9222 27.5512 44.3021 27.3281 44.5364L23.1494 48.924L27.4476 53.4371C27.6708 53.6714 27.6708 54.0513 27.4476 54.2856L27.2456 54.4978C27.0225 54.7321 26.6607 54.7321 26.4375 54.4978L22.1393 49.9846L18.0347 54.2945C17.8115 54.5288 17.4497 54.5288 17.2265 54.2945L17.0245 54.0823C16.8014 53.848 16.8014 53.4681 17.0245 53.2338L21.1291 48.9239L17.1441 44.7397C16.9209 44.5054 16.9209 44.1255 17.1441 43.8912L17.3461 43.679C17.5693 43.4447 17.9311 43.4447 18.1542 43.679L22.1392 47.8633L26.3179 43.4757ZM54.5714 48.1C54.887 48.1 55.1429 48.3686 55.1429 48.7V49C55.1429 49.3314 54.887 49.6 54.5714 49.6L41.4286 49.6C41.113 49.6 40.8571 49.3314 40.8571 49V48.7C40.8571 48.3686 41.113 48.1 41.4286 48.1L54.5714 48.1ZM74.4286 55.9C74.4286 56.2314 74.1727 56.5 73.8571 56.5H73.5714C73.2559 56.5 73 56.2314 73 55.9V49.75H67.1429C66.8273 49.75 66.5714 49.4814 66.5714 49.15V48.85C66.5714 48.5186 66.8273 48.25 67.1429 48.25H73V42.1C73 41.7686 73.2559 41.5 73.5714 41.5H73.8571C74.1727 41.5 74.4286 41.7686 74.4286 42.1V48.25H80.2857C80.6013 48.25 80.8571 48.5186 80.8571 48.85V49.15C80.8571 49.4814 80.6013 49.75 80.2857 49.75H74.4286V55.9Z" fill="black"/>
<path fill-rule="evenodd" clip-rule="evenodd" d="M73.857 56.5C74.1726 56.5 74.4284 56.2314 74.4284 55.9L74.4284 49.75H80.2856C80.6012 49.75 80.857 49.4814 80.857 49.15V48.85C80.857 48.5186 80.6012 48.25 80.2856 48.25H74.4284L74.4284 42.1C74.4284 41.7686 74.1726 41.5 73.857 41.5H73.5713C73.2557 41.5 72.9999 41.7686 72.9999 42.1L72.9999 48.25H67.1427C66.8271 48.25 66.5713 48.5186 66.5713 48.85V49.15C66.5713 49.4814 66.8271 49.75 67.1427 49.75H72.9999L72.9999 55.9C72.9999 56.2314 73.2557 56.5 73.5713 56.5H73.857Z" fill="#2CCA3E"/>
<path d="M54.5716 48.0996C54.8872 48.0996 55.1431 48.3682 55.1431 48.6996L55.1431 48.9996C55.1431 49.331 54.8872 49.5996 54.5716 49.5996L41.4288 49.5996C41.1132 49.5996 40.8574 49.331 40.8574 48.9996L40.8574 48.6996C40.8574 48.3682 41.1132 48.0996 41.4288 48.0996L54.5716 48.0996Z" fill="#FFBD2B"/>
<path fill-rule="evenodd" clip-rule="evenodd" d="M27.1258 43.4765C26.9027 43.2422 26.5409 43.2422 26.3177 43.4765L22.1391 47.8641L18.154 43.6798C17.9309 43.4455 17.5691 43.4455 17.3459 43.6798L17.1439 43.8919C16.9207 44.1263 16.9207 44.5062 17.1439 44.7405L21.1289 48.9247L17.0243 53.2346C16.8011 53.4689 16.8011 53.8488 17.0243 54.0831L17.2263 54.2952C17.4495 54.5296 17.8113 54.5296 18.0345 54.2952L22.1391 49.9854L26.4373 54.4985C26.6605 54.7328 27.0223 54.7328 27.2454 54.4985L27.4475 54.2864C27.6706 54.0521 27.6706 53.6722 27.4475 53.4379L23.1492 48.9247L27.3279 44.5372C27.551 44.3029 27.551 43.923 27.3279 43.6886L27.1258 43.4765Z" fill="#FF6156"/>
</svg>
