<svg width="24" height="24" viewBox="0 0 24 24" fill="none" xmlns="http://www.w3.org/2000/svg">
<path d="M23 4C23 3.46582 22.792 2.96387 22.4141 2.58594L21.4141 1.58594C20.6582 0.830078 19.3438 0.828125 18.584 1.58789L17 3.19025V3C17 1.89697 16.1816 1 15.1763 1H2.82373C1.81836 1 1 1.89697 1 3V21C1 22.103 1.81836 23 2.82373 23H15.1763C16.1816 23 17 22.103 17 21V10.7661L22.4141 5.41406C22.792 5.03613 23 4.53418 23 4Z" fill="black"/>
<path d="M16 21C16 21.5513 15.6304 22 15.1763 22H2.82373C2.36963 22 2 21.5513 2 21V3C2 2.44873 2.36963 2 2.82373 2H4.5V3.15375C4.20667 3.32831 4 3.63477 4 4C4 4.55127 4.44873 5 5 5C5.55127 5 6 4.55127 6 4C6 3.63477 5.79333 3.32831 5.5 3.15375V2H8.5V3.15375C8.20667 3.32831 8 3.63477 8 4C8 4.55127 8.44873 5 9 5C9.55127 5 10 4.55127 10 4C10 3.63477 9.79333 3.32831 9.5 3.15375V2H12.5V3.15375C12.2067 3.32831 12 3.63477 12 4C12 4.55127 12.4487 5 13 5C13.5513 5 14 4.55127 14 4C14 3.63477 13.7933 3.32831 13.5 3.15375V2H15.1763C15.6304 2 16 2.44873 16 3V4.20184L8.14453 12.1484C8.09766 12.1958 8.06055 12.2524 8.03564 12.3145L6.03564 17.3145C5.96143 17.5 6.00488 17.7119 6.14648 17.8535C6.24219 17.9492 6.37012 18 6.5 18C6.56249 18 6.62549 17.9883 6.68555 17.9644L11.6855 15.9644C11.7476 15.9395 11.8042 15.9023 11.8516 15.8555L16 11.7546V21Z" fill="white"/>
<path d="M12.1405 14.1633L11.947 13.7764C11.8987 13.6797 11.8201 13.6011 11.7234 13.5527L11.3438 13.363L19.4998 5.20703L20.3455 6.05273L12.1405 14.1633Z" fill="#FFBD2B"/>
<path opacity="0.1" d="M12.1405 14.1633L11.947 13.7764C11.8987 13.6797 11.8201 13.6011 11.7234 13.5527L11.3438 13.363L19.4998 5.20703L20.3455 6.05273L12.1405 14.1633Z" fill="black"/>
<path d="M10.6371 12.656L10.4474 12.2764C10.3625 12.1069 10.1896 12 10.0002 12H9.69775L17.9474 3.6543L18.7932 4.5L10.6371 12.656Z" fill="#FFBD2B"/>
<path d="M7.69177 16.4848L7.51514 16.3082L8.83862 13H9.69086L10.0527 13.7236C10.101 13.8203 10.1796 13.8989 10.2763 13.9473L11.1274 14.3726L11.3924 14.903L11.2202 15.0732L7.69177 16.4848Z" fill="#F3F3F3"/>
<path d="M21.7092 4.70532L21.057 5.35004L18.6504 2.94342L19.2932 2.29321C19.6711 1.91528 20.3293 1.91528 20.7072 2.29321L21.7072 3.29321C21.8962 3.48218 22.0002 3.73315 22.0002 4.00024C22.0002 4.26733 21.8962 4.51831 21.7092 4.70532Z" fill="#FF6156"/>
<path d="M16 21.0003V11.7549L11.8516 15.8558C11.8042 15.9026 11.7476 15.9398 11.6855 15.9647L6.68555 17.9647C6.62549 17.9886 6.56249 18.0003 6.5 18.0003C6.37012 18.0003 6.24219 17.9495 6.14648 17.8538L10.293 22.0003H15.1763C15.6304 22.0003 16 21.5516 16 21.0003Z" fill="url(#paint0_linear_230_10941)"/>
<path opacity="0.1" d="M7.69183 16.4853L11.2202 15.0737L11.3925 14.9034L11.1274 14.373L10.2764 13.9478C10.228 13.9236 10.2023 13.8737 10.1646 13.8359L7.60352 16.397L7.69183 16.4853Z" fill="black"/>
<path opacity="0.1" d="M21.207 2.79297L19.8535 4.14648L21.0568 5.34979L21.709 4.70508C21.896 4.51807 22 4.26709 22 4C22 3.73291 21.896 3.48193 21.707 3.29297L21.207 2.79297Z" fill="black"/>
<path d="M23 4C23 3.46582 22.792 2.96387 22.4141 2.58594L21.4141 1.58594C20.6582 0.830078 19.3438 0.828125 18.584 1.58789L17 3.19025V3C17 1.89697 16.1816 1 15.1763 1H2.82373C1.81836 1 1 1.89697 1 3V21C1 22.103 1.81836 23 2.82373 23H15.1763C16.1816 23 17 22.103 17 21V10.7661L22.4141 5.41406C22.792 5.03613 23 4.53418 23 4Z" fill="url(#paint1_linear_230_10941)"/>
<defs>
<linearGradient id="paint0_linear_230_10941" x1="10.1346" y1="13.8657" x2="16.8702" y2="20.6013" gradientUnits="userSpaceOnUse">
<stop stop-color="#010101" stop-opacity="0.1"/>
<stop offset="1" stop-color="#010101" stop-opacity="0"/>
</linearGradient>
<linearGradient id="paint1_linear_230_10941" x1="-0.767139" y1="6.30841" x2="19.6382" y2="15.8236" gradientUnits="userSpaceOnUse">
<stop stop-color="white" stop-opacity="0.2"/>
<stop offset="1" stop-color="white" stop-opacity="0"/>
</linearGradient>
</defs>
</svg>
