<svg width="24" height="24" viewBox="0 0 24 24" fill="none" xmlns="http://www.w3.org/2000/svg">
<path d="M23.9077 16.1196L19.8389 2.55664C19.4995 1.42236 18.2642 0.750976 17.1196 1.0918L11.9634 2.63867C11.7925 1.70807 10.9793 1 10 1C8.89697 1 8 1.89697 8 3H2C0.896973 3 0 3.89697 0 5V20C0 21.103 0.896973 22 2 22H6.42212C6.81555 22.6133 7.49182 23 8.25293 23C8.46582 23 8.67725 22.9688 8.88037 22.9077L22.4434 18.8389C23.3745 18.5601 24 17.7192 24 16.7471C24 16.5342 23.9688 16.3228 23.9077 16.1196Z" fill="black"/>
<path d="M10 4C10.5523 4 11 3.55228 11 3C11 2.44772 10.5523 2 10 2C9.44772 2 9 2.44772 9 3C9 3.55228 9.44772 4 10 4Z" fill="#FF6156"/>
<path opacity="0.1" d="M10.4082 2.0918C10.4649 2.21716 10.5 2.35376 10.5 2.5C10.5 3.05127 10.0513 3.5 9.5 3.5C9.35376 3.5 9.21716 3.4649 9.0918 3.4082C9.24878 3.75537 9.59497 4 10 4C10.5513 4 11 3.55127 11 3C11 2.59497 10.7554 2.24878 10.4082 2.0918Z" fill="#18181B"/>
<path d="M1 20V5C1 4.44873 1.44873 4 2 4H7.42694L3.55664 5.16113C2.62549 5.43994 2 6.28076 2 7.25293C2 7.46582 2.03125 7.67725 2.09229 7.88037L6.02814 21H2C1.44873 21 1 20.5513 1 20Z" fill="#FFBD2B"/>
<path d="M22.1562 17.8806L8.59277 21.95C7.98535 22.1326 7.30078 21.7639 7.11914 21.156L3.0498 7.59255C3.0166 7.4822 3 7.36794 3 7.25271C3 6.73415 3.34668 6.26784 3.84375 6.11892L8.83752 4.62075C9.16583 4.85695 9.56543 4.99978 10 4.99978C10.1793 4.99978 10.3499 4.96847 10.5154 4.92403L11.084 5.77712C11.1802 5.92165 11.3389 5.99978 11.5005 5.99978C11.5957 5.99978 11.6919 5.97243 11.7773 5.91579C12.0073 5.76247 12.0693 5.45241 11.916 5.22243L11.3898 4.43307C11.5969 4.2322 11.7574 3.98678 11.8627 3.71279L17.4062 2.04958C18.0161 1.86745 18.6992 2.23659 18.8809 2.84353L22.9502 16.407C22.9834 16.5174 23 16.6316 23 16.7468C23 17.2654 22.6533 17.7317 22.1562 17.8806Z" fill="white"/>
<path d="M22.1561 17.8804C22.6532 17.7315 22.9999 17.2652 22.9999 16.7466C22.9999 16.6314 22.9833 16.5172 22.9501 16.4068L21.7578 12.4327L12.7665 3.44141L11.8626 3.71259C11.7573 3.98657 11.5968 4.23199 11.3897 4.43286L11.9159 5.22223C12.0692 5.45221 12.0072 5.76227 11.7772 5.91559C11.6918 5.97223 11.5956 5.99957 11.5004 5.99957C11.3387 5.99957 11.1801 5.92145 11.0839 5.77692L10.5153 4.92383C10.3498 4.96826 10.1792 4.99957 9.99988 4.99957C9.56531 4.99957 9.16571 4.85675 8.8374 4.62054L22.1109 17.894L22.1561 17.8804Z" fill="url(#paint0_linear_230_10933)"/>
<path d="M23.9077 16.1196L19.8389 2.55664C19.4995 1.42236 18.2642 0.750976 17.1196 1.0918L11.9634 2.63867C11.7925 1.70807 10.9793 1 10 1C8.89697 1 8 1.89697 8 3H2C0.896973 3 0 3.89697 0 5V20C0 21.103 0.896973 22 2 22H6.42212C6.81555 22.6133 7.49182 23 8.25293 23C8.46582 23 8.67725 22.9688 8.88037 22.9077L22.4434 18.8389C23.3745 18.5601 24 17.7192 24 16.7471C24 16.5342 23.9688 16.3228 23.9077 16.1196Z" fill="url(#paint1_linear_230_10933)"/>
<defs>
<linearGradient id="paint0_linear_230_10933" x1="10.1145" y1="3.34349" x2="23.5028" y2="16.7318" gradientUnits="userSpaceOnUse">
<stop stop-color="#010101" stop-opacity="0.1"/>
<stop offset="1" stop-color="#010101" stop-opacity="0"/>
</linearGradient>
<linearGradient id="paint1_linear_230_10933" x1="-0.894291" y1="6.4745" x2="23.6764" y2="17.932" gradientUnits="userSpaceOnUse">
<stop stop-color="white" stop-opacity="0.2"/>
<stop offset="1" stop-color="white" stop-opacity="0"/>
</linearGradient>
</defs>
</svg>
