 <svg
            width="109"
            height="19"
            viewBox="0 0 109 19"
            fill="none"
            xmlns="http://www.w3.org/2000/svg"
          >
            <path
              d="M100.719 18.6139L102.332 14.4888L98.3472 4.2877H101.021L103.341 10.3636C103.403 10.5059 103.462 10.6617 103.518 10.831C103.573 11.0004 103.625 11.1697 103.674 11.339C103.715 11.1697 103.764 11.0037 103.819 10.8412C103.882 10.6718 103.944 10.5127 104.006 10.3636L106.326 4.2877H109L103.403 18.6139H100.719Z"
              fill="#90A0B0"
            />
            <path
              d="M92.4456 14.9155C91.0794 14.9155 90.0078 14.4346 89.2311 13.4727C88.4543 12.5109 88.0659 11.1765 88.0659 9.46952C88.0659 8.38574 88.2497 7.43744 88.6173 6.6246C88.9849 5.81177 89.4981 5.17843 90.157 4.7246C90.8228 4.27077 91.5961 4.04385 92.4769 4.04385C93.4201 4.04385 94.1934 4.38253 94.7968 5.0599V1.14813L97.3871 0V14.6717H94.7968V13.8182C94.2835 14.5497 93.4998 14.9155 92.4456 14.9155ZM92.8722 12.4872C93.316 12.4872 93.694 12.4127 94.0061 12.2636C94.3182 12.1078 94.5818 11.8775 94.7968 11.5727V7.37648C94.5818 7.09198 94.3009 6.86845 93.9541 6.70589C93.6143 6.54332 93.2536 6.46204 92.8722 6.46204C92.1717 6.46204 91.6307 6.72282 91.2493 7.24439C90.8678 7.75918 90.6771 8.5009 90.6771 9.46952C90.6771 10.1062 90.7638 10.6515 90.9372 11.1054C91.1106 11.5524 91.3603 11.8945 91.6862 12.1316C92.0122 12.3686 92.4075 12.4872 92.8722 12.4872Z"
              fill="#90A0B0"
            />
            <path
              d="M81.6854 14.9155C80.3191 14.9155 79.2476 14.4346 78.4708 13.4727C77.6941 12.5109 77.3057 11.1765 77.3057 9.46952C77.3057 8.38574 77.4895 7.43744 77.857 6.6246C78.2246 5.81177 78.7378 5.17843 79.3967 4.7246C80.0625 4.27077 80.8358 4.04385 81.7166 4.04385C82.6598 4.04385 83.4331 4.38253 84.0365 5.0599V1.14813L86.6269 0V14.6717H84.0365V13.8182C83.5233 14.5497 82.7396 14.9155 81.6854 14.9155ZM82.1119 12.4872C82.5558 12.4872 82.9338 12.4127 83.2459 12.2636C83.558 12.1078 83.8215 11.8775 84.0365 11.5727V7.37648C83.8215 7.09198 83.5406 6.86845 83.1938 6.70589C82.854 6.54332 82.4934 6.46204 82.1119 6.46204C81.4114 6.46204 80.8705 6.72282 80.489 7.24439C80.1076 7.75918 79.9169 8.5009 79.9169 9.46952C79.9169 10.1062 80.0036 10.6515 80.1769 11.1054C80.3503 11.5524 80.6 11.8945 80.926 12.1316C81.2519 12.3686 81.6472 12.4872 82.1119 12.4872Z"
              fill="#90A0B0"
            />
            <path
              d="M70.6366 14.9155C69.4506 14.9155 68.5317 14.5565 67.8797 13.8385C67.2278 13.1137 66.9019 12.0909 66.9019 10.7701V4.2877H69.5026V9.97754C69.5026 10.8513 69.6552 11.4881 69.9604 11.8877C70.2655 12.2873 70.7476 12.4872 71.4064 12.4872C72.1138 12.4872 72.634 12.2873 72.9669 11.8877C73.3067 11.4813 73.4766 10.8581 73.4766 10.0182V4.2877H76.067V14.6717H73.4766V13.6963C73.1507 14.1027 72.7484 14.4075 72.2699 14.6107C71.7983 14.8139 71.2538 14.9155 70.6366 14.9155Z"
              fill="#90A0B0"
            />
            <path
              d="M53.9932 14.6717V0.447056H60.2767C61.4626 0.447056 62.3989 0.63333 63.0855 1.00588C63.7721 1.37166 64.2611 1.8492 64.5524 2.4385C64.8437 3.02103 64.9893 3.63066 64.9893 4.26738C64.9893 4.9041 64.8471 5.48663 64.5628 6.01497C64.2784 6.53654 63.8137 6.93957 63.1687 7.22407C63.6958 7.40695 64.1293 7.67112 64.4691 8.01658C64.8159 8.35526 65.0691 8.74136 65.2286 9.17487C65.395 9.60161 65.4782 10.0351 65.4782 10.4754C65.4782 10.9767 65.3915 11.4779 65.2182 11.9791C65.0517 12.4736 64.7778 12.9241 64.3963 13.3305C64.0149 13.7369 63.5086 14.062 62.8775 14.3059C62.2533 14.5497 61.4834 14.6717 60.568 14.6717H53.9932ZM56.6876 12.2027H60.7448C61.265 12.2027 61.6707 12.1146 61.962 11.9385C62.2602 11.7624 62.4683 11.5423 62.5862 11.2781C62.711 11.0071 62.7734 10.7396 62.7734 10.4754C62.7734 10.1503 62.7006 9.84207 62.555 9.55081C62.4162 9.25277 62.1562 9.00892 61.7747 8.81925C61.4002 8.62959 60.8558 8.53476 60.1414 8.53476H56.6876V12.2027ZM56.6876 6.16738H59.9438C60.7344 6.16738 61.317 6.01836 61.6915 5.72032C62.0729 5.41551 62.2637 5.01248 62.2637 4.51123C62.2637 4.25383 62.2151 4.00321 62.118 3.75936C62.0209 3.50873 61.8337 3.30214 61.5563 3.13957C61.2788 2.977 60.8696 2.89572 60.3287 2.89572H56.6876V6.16738Z"
              fill="#90A0B0"
            />
            <path
              d="M49.1865 14.6717V1.14813L51.7873 0V14.6717H49.1865Z"
              fill="#90A0B0"
            />
            <path
              d="M41.8909 14.9155C40.7327 14.9155 39.8138 14.6107 39.1341 14.0011C38.4614 13.3847 38.125 12.5515 38.125 11.5016C38.125 10.8242 38.2984 10.2315 38.6452 9.72352C38.9989 9.20873 39.4878 8.81247 40.112 8.53475C40.7431 8.25026 41.4783 8.10802 42.3175 8.10802C42.7821 8.10802 43.2295 8.15204 43.6595 8.2401C44.0964 8.32138 44.4779 8.43992 44.8038 8.59572V7.94545C44.8038 7.36292 44.6339 6.92602 44.2941 6.63475C43.9612 6.33671 43.4688 6.18769 42.8168 6.18769C42.2967 6.18769 41.7626 6.27914 41.2147 6.46203C40.6668 6.64491 40.112 6.91586 39.5502 7.27486L38.77 5.27325C39.3803 4.88038 40.06 4.57896 40.809 4.36898C41.558 4.15222 42.314 4.04384 43.0769 4.04384C44.5056 4.04384 45.5737 4.37575 46.2811 5.03956C46.9885 5.69661 47.3422 6.67878 47.3422 7.98609V14.6717H44.8038V13.8385C44.4432 14.1907 44.0132 14.4583 43.5138 14.6412C43.0214 14.8241 42.4805 14.9155 41.8909 14.9155ZM42.4943 12.7717C42.9243 12.7717 43.337 12.6904 43.7323 12.5278C44.1346 12.3585 44.4917 12.1214 44.8038 11.8166V10.5872C44.5056 10.4449 44.1727 10.3365 43.8051 10.262C43.4445 10.1807 43.0838 10.1401 42.7232 10.1401C42.0782 10.1401 41.5684 10.262 41.1939 10.5059C40.8263 10.743 40.6426 11.0749 40.6426 11.5016C40.6426 11.9012 40.8055 12.2128 41.1315 12.4364C41.4575 12.6599 41.9117 12.7717 42.4943 12.7717Z"
              fill="#90A0B0"
            />
            <path
              d="M27.6641 14.6717V4.28769H30.2649V5.28341C30.6047 4.87022 31.0104 4.56202 31.482 4.35882C31.9606 4.14883 32.505 4.04384 33.1153 4.04384C34.3013 4.04384 35.2167 4.40284 35.8617 5.12085C36.5067 5.83208 36.8292 6.85828 36.8292 8.19946V14.6717H34.2389V8.98181C34.2389 8.10802 34.0828 7.4713 33.7707 7.07165C33.4656 6.66523 32.987 6.46203 32.3351 6.46203C31.6277 6.46203 31.104 6.66523 30.7642 7.07165C30.4313 7.4713 30.2649 8.09447 30.2649 8.94117V14.6717H27.6641Z"
              fill="#90A0B0"
            />
            <path
              d="M20.6396 19L19.2039 16.8765C20.2165 16.802 21.0002 16.6902 21.555 16.5412C22.1168 16.3922 22.5087 16.1788 22.7306 15.9011C22.9525 15.6234 23.0635 15.261 23.0635 14.8139V14.062C22.5225 14.631 21.7596 14.9155 20.7748 14.9155C19.8524 14.9155 19.0583 14.6988 18.3925 14.2652C17.7267 13.825 17.2135 13.1984 16.8528 12.3856C16.4991 11.566 16.3223 10.5939 16.3223 9.46951C16.3223 8.37219 16.5061 7.41711 16.8736 6.60427C17.2481 5.79144 17.7683 5.16149 18.4341 4.71443C19.1068 4.26737 19.894 4.04384 20.7956 4.04384C21.2672 4.04384 21.6972 4.11497 22.0856 4.25721C22.4809 4.39946 22.8069 4.60605 23.0635 4.877V4.28769H25.6539V13.7369C25.6539 14.6581 25.5672 15.4371 25.3938 16.0738C25.2204 16.7105 24.9361 17.2321 24.5408 17.6385C24.1524 18.0449 23.6391 18.3531 23.0011 18.5631C22.363 18.7799 21.5759 18.9255 20.6396 19ZM21.2013 12.4872C21.5689 12.4872 21.9122 12.4059 22.2313 12.2433C22.5572 12.074 22.8346 11.8471 23.0635 11.5626V7.37646C22.8693 7.11229 22.6023 6.89554 22.2625 6.7262C21.9226 6.55008 21.5793 6.46203 21.2326 6.46203C20.4835 6.46203 19.9114 6.71942 19.516 7.23422C19.1276 7.74224 18.9335 8.48734 18.9335 9.46951C18.9335 10.1062 19.0201 10.6515 19.1935 11.1053C19.3739 11.5524 19.6339 11.8945 19.9738 12.1315C20.3136 12.3686 20.7228 12.4872 21.2013 12.4872Z"
              fill="#90A0B0"
            />
            <path
              d="M12.2606 14.6717V4.2877H14.8614V14.6717H12.2606ZM13.561 2.98716C13.1449 2.98716 12.7842 2.84153 12.4791 2.55026C12.1809 2.25222 12.0317 1.89999 12.0317 1.49358C12.0317 1.08716 12.1809 0.741703 12.4791 0.457212C12.7773 0.165946 13.1379 0.0203133 13.561 0.0203133C13.9979 0.0203133 14.362 0.162559 14.6533 0.447051C14.9446 0.731543 15.0903 1.08039 15.0903 1.49358C15.0903 1.90677 14.9412 2.259 14.6429 2.55026C14.3516 2.84153 13.991 2.98716 13.561 2.98716Z"
              fill="#90A0B0"
            />
            <path
              d="M5.57609 14.9155C4.66755 14.9155 3.84223 14.7597 3.10014 14.4481C2.35805 14.1365 1.71999 13.6963 1.18596 13.1273C0.658866 12.5515 0.263546 11.8741 0 11.0952L2.44474 10.2112C2.75684 10.8615 3.1903 11.3966 3.74513 11.8166C4.3069 12.2298 4.93803 12.4364 5.63851 12.4364C6.3806 12.4364 6.97011 12.284 7.40704 11.9791C7.85091 11.6743 8.07284 11.2307 8.07284 10.6481C8.07284 10.2485 7.94107 9.91657 7.67753 9.6524C7.42091 9.38146 7.07068 9.15115 6.62681 8.96149C6.18987 8.76506 5.69399 8.57539 5.13916 8.39251C4.60513 8.21639 4.06763 8.01996 3.52667 7.8032C2.9857 7.58645 2.48982 7.32227 2.03902 7.01069C1.58821 6.69233 1.2241 6.29268 0.946687 5.81176C0.676205 5.33083 0.540964 4.74152 0.540964 4.04384C0.540964 3.34616 0.731688 2.70605 1.11314 2.12352C1.49459 1.54099 2.04595 1.07699 2.76724 0.731539C3.49546 0.379312 4.37626 0.203197 5.40964 0.203197C6.25576 0.203197 7.00479 0.345443 7.65672 0.629935C8.31559 0.907653 8.86002 1.28698 9.29001 1.7679C9.72001 2.24883 10.0182 2.79411 10.1847 3.40373L7.77115 4.18609C7.57696 3.75935 7.27874 3.40373 6.87648 3.11924C6.48116 2.82798 5.94367 2.68234 5.26399 2.68234C4.62593 2.68234 4.13005 2.80427 3.77634 3.04812C3.42264 3.29197 3.24578 3.63742 3.24578 4.08448C3.24578 4.3893 3.36369 4.65008 3.59949 4.86684C3.84223 5.07682 4.16473 5.26648 4.56698 5.43582C4.97617 5.60516 5.43738 5.77789 5.9506 5.954C6.52624 6.14366 7.09842 6.36042 7.66712 6.60427C8.24276 6.84135 8.76292 7.13261 9.2276 7.47807C9.6992 7.82352 10.0772 8.25365 10.3615 8.76844C10.6459 9.27646 10.7881 9.89964 10.7881 10.638C10.7881 11.5456 10.5557 12.3178 10.0911 12.9545C9.63332 13.5913 9.0126 14.079 8.22889 14.4176C7.44519 14.7496 6.56092 14.9155 5.57609 14.9155Z"
              fill="#90A0B0"
            />
          </svg>