<svg width="20" height="20" viewBox="0 0 20 20" fill="none" xmlns="http://www.w3.org/2000/svg">
<path d="M1.05908 5.56581C1.69222 4.27641 2.58679 3.18661 3.71419 2.28043C5.2419 1.04692 6.99427 0.304416 8.95905 0.0768744C11.2669 -0.190586 13.436 0.236552 15.4416 1.41019C15.9399 1.7016 16.4056 2.03293 16.8508 2.39221C16.9611 2.48003 16.9489 2.53193 16.8549 2.61975C15.944 3.50596 15.0331 4.39218 14.1304 5.28637C14.0242 5.39016 13.967 5.38218 13.8526 5.29835C11.2057 3.30636 7.34556 3.84528 5.37261 6.47997C5.0254 6.94303 4.74355 7.44203 4.54748 7.98493C4.53115 8.03284 4.49847 8.07675 4.47396 8.12465C3.94702 7.73344 3.416 7.34223 2.89315 6.94703C2.28043 6.48795 1.66771 6.02888 1.05908 5.56581Z" fill="#E94335"/>
<path d="M4.47365 11.8691C4.64929 12.2484 4.79635 12.6436 5.01693 12.9989C5.94417 14.4839 7.26764 15.4379 9.01184 15.7773C10.5845 16.0846 12.0959 15.8771 13.5051 15.1066C13.5541 15.0827 13.6031 15.0587 13.6481 15.0348C13.6726 15.0587 13.693 15.0867 13.7175 15.1066C14.7714 15.905 15.8293 16.7034 16.8832 17.5018C16.3767 17.9928 15.8007 18.388 15.188 18.7313C13.4112 19.7213 11.4872 20.1205 9.46117 19.9688C6.93677 19.7772 4.75958 18.8032 2.96228 17.0467C2.17392 16.2763 1.52444 15.406 1.05469 14.412C1.49176 14.0847 1.92883 13.7613 2.3659 13.434C3.06848 12.911 3.77107 12.3921 4.47365 11.8691Z" fill="#34A853"/>
<path d="M16.8875 17.5022C15.8336 16.7038 14.7756 15.9054 13.7218 15.107C13.6973 15.0871 13.6727 15.0591 13.6523 15.0352C14.0159 14.7597 14.3876 14.4923 14.6858 14.141C15.1841 13.5582 15.515 12.8995 15.6865 12.161C15.707 12.0692 15.6906 12.0372 15.5967 12.0412C15.5477 12.0452 15.5027 12.0412 15.4537 12.0412C13.7871 12.0412 12.1164 12.0372 10.4499 12.0452C10.266 12.0452 10.2252 11.9973 10.2293 11.8257C10.2374 10.668 10.2374 9.51033 10.2293 8.35266C10.2293 8.20496 10.2701 8.16504 10.4213 8.16504C13.4767 8.16903 16.5321 8.16903 19.5916 8.16504C19.7223 8.16504 19.7754 8.19697 19.8081 8.3327C20.0573 9.43049 20.0409 10.5323 19.8898 11.642C19.7672 12.5282 19.5467 13.3865 19.2076 14.2168C18.7052 15.4424 17.9658 16.5122 16.9937 17.4304C16.9569 17.4583 16.9201 17.4783 16.8875 17.5022Z" fill="#4285F3"/>
<path d="M4.47376 11.8686C3.77118 12.3916 3.0686 12.9105 2.36601 13.4335C1.92894 13.7568 1.49187 14.0842 1.0548 14.4115C0.715762 13.7968 0.495184 13.1461 0.315454 12.4754C-0.0276678 11.178 -0.08077 9.86069 0.10713 8.53935C0.254182 7.50144 0.56054 6.50345 1.0548 5.56934C1.66752 6.02841 2.27615 6.49148 2.88887 6.95055C3.4158 7.34576 3.94274 7.73697 4.46968 8.12818C4.37981 8.55532 4.25318 8.97447 4.21233 9.41359C4.13881 10.212 4.21642 10.9904 4.44925 11.7569C4.46559 11.7888 4.46968 11.8287 4.47376 11.8686Z" fill="#FABB06"/>
</svg>
